<?xml version="1.0" encoding="UTF-8" standalone="no"?>
<!-- Created with Inkscape (http://www.inkscape.org/) -->

<svg
   version="1.1"
   id="svg2"
   width="698.71997"
   height="75.773331"
   viewBox="0 0 698.71997 75.773331"
   sodipodi:docname="uvalogo_regular_p_en.eps"
   xmlns:inkscape="http://www.inkscape.org/namespaces/inkscape"
   xmlns:sodipodi="http://sodipodi.sourceforge.net/DTD/sodipodi-0.dtd"
   xmlns="http://www.w3.org/2000/svg"
   xmlns:svg="http://www.w3.org/2000/svg">
  <defs
     id="defs6" />
  <sodipodi:namedview
     id="namedview4"
     pagecolor="#ffffff"
     bordercolor="#000000"
     borderopacity="0.25"
     inkscape:showpageshadow="2"
     inkscape:pageopacity="0.0"
     inkscape:pagecheckerboard="0"
     inkscape:deskcolor="#d1d1d1" />
  <g
     id="g8"
     inkscape:groupmode="layer"
     inkscape:label="ink_ext_XXXXXX"
     transform="matrix(1.3333333,0,0,-1.3333333,0,75.773333)">
    <g
       id="g10"
       transform="scale(0.1)">
      <path
         d="M 566.93,0 H 0 V 566.934 H 566.93 V 0"
         style="fill:#231f20;fill-opacity:1;fill-rule:nonzero;stroke:none"
         id="path12" />
      <path
         d="m 240.66,405.496 42.813,42.817 42.82,-42.817 23.68,23.688 -42.801,42.828 42.801,42.797 -23.68,23.703 -42.82,-42.809 -42.813,42.809 -23.695,-23.703 42.82,-42.797 -42.82,-42.828 23.695,-23.688"
         style="fill:#ffffff;fill-opacity:1;fill-rule:nonzero;stroke:none"
         id="path14" />
      <path
         d="m 240.66,247.941 42.813,42.813 42.82,-42.813 23.68,23.68 -42.801,42.832 42.801,42.797 -23.68,23.703 -42.82,-42.808 -42.813,42.808 -23.695,-23.703 42.82,-42.797 -42.82,-42.832 23.695,-23.68"
         style="fill:#ffffff;fill-opacity:1;fill-rule:nonzero;stroke:none"
         id="path16" />
      <path
         d="m 240.66,28.6523 42.813,42.8125 42.82,-42.8125 23.68,23.6915 -42.801,42.8203 42.801,42.8049 -23.68,23.691 -42.82,-42.801 -42.813,42.801 -23.695,-23.691 42.82,-42.8049 -42.82,-42.8203 23.695,-23.6915"
         style="fill:#ffffff;fill-opacity:1;fill-rule:nonzero;stroke:none"
         id="path18" />
      <path
         d="m 412.328,406.121 -49.258,-2.262 c 0,0 7.032,-52.011 4.055,-104.55 -2.863,-50.168 -10.77,-58.985 -10.77,-58.985 -11.128,-20.89 -45.585,-25.976 -63.203,-27.336 -17.672,-1.386 -25.562,-0.429 -25.562,-0.429 0,0 -50.836,1.953 -62.238,25.625 -6.497,13.488 -7.868,39.961 -7.868,39.961 0,0 -0.3,124.058 -0.75,126.859 -0.285,1.5 -10.285,-1.094 -21.867,-1.024 -9.429,0.028 -23.226,0.645 -23.226,0.645 l 4.086,-91.133 -0.551,-53.863 c 0,0 0,-28.895 7.414,-40.418 12.508,-19.563 26.433,-26.555 34.34,-30.258 7.89,-3.75 20.433,-7.476 34.371,-10.262 13.926,-2.812 37.179,-4.238 67.816,3.614 30.656,7.898 44.211,21.797 44.211,21.797 l 23.235,21.836 -0.071,-51.61 48.801,14.363 c 0,0 -6.441,40.899 -6.371,110.582 0.07,69.707 3.406,106.848 3.406,106.848"
         style="fill:#ffffff;fill-opacity:1;fill-rule:nonzero;stroke:none"
         id="path20" />
      <path
         d="m 3421.25,407.277 -43.48,112.09 h -0.82 l -37.19,-112.09 z m -86.65,-15.312 -17.22,-55.625 c -3.15,-10.227 -4.67,-19.199 -4.67,-25.512 0,-12.906 18.38,-15.652 29.02,-15.652 3.46,0 4.3,-2.324 4.3,-7.461 0,-3.895 -0.45,-5.508 -3.18,-5.508 -8.97,0 -37.6,2.012 -48.19,2.012 -10.54,0 -27.03,-2.012 -38.83,-2.012 -7.81,0 -7.81,1.223 -7.81,6.309 v 4.336 c 0,1.933 3.48,2.714 12.93,3.515 20.39,1.946 23.17,5.852 30.63,27.453 l 77.58,225.711 c 7.79,6.621 16.03,15.696 25.78,18.821 l 98.43,-248.106 c 6.64,-16.457 13.71,-24.68 36.45,-24.68 4.3,0 5.08,-4.714 5.08,-9.011 0,-4.348 -2.7,-4.348 -7.4,-4.348 -6.37,0 -31.41,2.012 -46.7,2.012 -15.67,0 -31.37,-0.789 -47.02,-2.012 -5.86,0 -6.27,1.223 -6.27,6.699 0,4.278 2.35,6.27 7.86,6.27 5.91,0 25.07,1.191 25.07,10.597 0,3.125 -1.56,9.403 -7.05,23.114 l -25.07,63.078 h -93.72"
         style="fill:#040606;fill-opacity:1;fill-rule:nonzero;stroke:none"
         id="path22" />
      <path
         d="m 2961.21,385.898 c 0,49.219 -33.66,99.29 -86.37,99.29 -54.18,0 -80.25,-42.461 -80.25,-91.907 0,-50.117 30.45,-101.953 84.94,-101.953 53.88,0 81.68,44.192 81.68,94.57 m -197.92,-2.304 c 0,61.203 52.38,111.269 113.03,111.269 61.47,0 116.25,-42.168 116.25,-103.066 0,-58.906 -56.81,-111.887 -115.13,-111.887 -61.16,0 -114.15,39.77 -114.15,103.684"
         style="fill:#040606;fill-opacity:1;fill-rule:nonzero;stroke:none"
         id="path24" />
      <path
         d="m 3028.39,457.93 c 0,17.843 -2.91,21.691 -20.15,21.691 h -5 c -5.24,-0.332 -7.58,0.574 -7.58,2.363 0,2.344 0,7.325 3.26,7.325 h 120 c 9.94,0 19.9,1.433 30.16,1.433 1.74,0 4.12,-0.301 4.12,-2.644 l 1.17,-33.047 c 0,-2.055 0.31,-4.133 0.31,-6.184 0,-1.172 -2.34,-1.719 -5.31,-1.719 H 3145 c -0.61,3.469 -1.18,7.012 -2.04,10.207 l -2.63,9.083 c -3.21,11.453 -11.72,13.183 -20.82,13.183 h -41.02 c -21.68,0 -23.73,-6.699 -23.73,-28.125 v -51.535 h 43.4 c 25.14,0 31.31,7.023 31.31,23.137 2.91,0.644 5.86,1.492 7.91,1.492 1.17,0 1.78,-0.613 1.78,-2.078 0,-2.297 -1.18,-6.723 -1.18,-28.106 0,-8.508 1.18,-23.722 1.18,-30.16 0,-2.633 -2.04,-3.785 -5.3,-3.785 -2.34,0 -3.22,2.605 -4.39,7.312 -2.03,12.004 -7.89,22.551 -32.8,22.551 h -41.91 v -76.75 c 0,-11.406 1.54,-17.566 16.47,-18.75 l 15.21,-1.164 c 1.45,0 1.99,-1.785 1.99,-3.765 0,-2.375 0,-5.872 -3.16,-5.872 -21.99,0 -31.35,1.438 -45.12,1.438 -12.01,0 -33.65,-1.438 -41.54,-1.438 -2.4,0 -2.4,2.93 -2.4,5.207 0,1.778 0.31,4.43 1.52,4.43 l 12.89,0.871 c 15.47,1.184 17.77,4.688 17.77,21.946 V 457.93"
         style="fill:#040606;fill-opacity:1;fill-rule:nonzero;stroke:none"
         id="path26" />
      <path
         d="m 752.145,515.383 c 0,30.887 -18.79,30.887 -40.305,30.887 l -1.938,1.613 v 6.629 c 0,4.289 2.731,4.687 7.032,4.687 10.171,0 35.211,-1.98 53.597,-1.98 19.524,0 39.449,1.98 59,1.98 l 1.192,-1.172 v -10.144 l -1.95,-1.613 h -4.664 c -25.437,0 -36.785,-2.696 -36.785,-32.059 V 400.82 c 0,-56.308 10.977,-100.507 78.199,-100.507 70.02,0 92.661,33.652 92.661,99.738 v 101.668 c 0,44.551 0,41.476 -34.371,44.551 l -1.583,3.144 v 7.441 l 1.192,2.344 c 7.023,0 14.848,-1.98 44.16,-1.98 16.461,0 37.168,1.98 49.688,1.98 l 1.55,-2.344 v -8.203 l -2.37,-2.382 c -28.477,0 -38.696,-1.563 -38.696,-21.082 v -139.59 c 0,-71.621 -41.82,-107.942 -112.992,-107.942 -56.699,0 -112.617,19.914 -112.617,85.235 v 152.492"
         style="fill:#040606;fill-opacity:1;fill-rule:nonzero;stroke:none"
         id="path28" />
      <path
         d="m 1041.15,454.426 c 0,5.879 -0.28,7.351 -1.46,9.656 -2.61,5.031 -15.53,15.539 -20.48,15.859 l -15.55,0.872 c -1.18,0 -1.48,2.917 -1.48,5.242 0,1.535 0,3.828 1.48,3.828 9.1,0 16.1,0.605 23.4,0.605 13.51,0 34.91,-1.179 40.16,-1.785 l 88.81,-107.226 c 13.46,-16.387 26.66,-31.641 47.76,-52.766 h 1.16 v 128.937 c 0,19.344 -7.03,22.293 -16.43,22.559 l -12.57,0.606 c -1.19,0 -1.79,2.917 -1.79,4.941 0,1.836 0.88,4.734 2.66,4.734 6.43,0 21.68,-1.484 36.03,-1.484 13.2,0 27.27,1.484 35.46,1.484 1.48,0 1.76,-1.179 1.76,-2.371 v -5.547 c 0,-1.445 -0.61,-1.757 -2.63,-1.757 h -7.61 c -20.21,0 -20.21,-10.266 -20.21,-35.176 V 275.969 h -7.05 l -158.24,180.789 v -134.5 c 0,-25.18 3.54,-28.067 28.72,-28.996 1.16,0 2.05,-2.637 2.05,-4.942 0,-2.363 -0.29,-4.715 -1.17,-4.715 -5.57,0 -24.29,1.473 -36.6,1.473 -14.38,0 -20.85,-1.473 -34.27,-1.473 -1.8,0 -2.1,2.051 -2.1,5.848 0,2.656 0.3,3.809 3.85,3.809 12.25,0 26.34,2.91 26.34,17.883 v 143.281"
         style="fill:#040606;fill-opacity:1;fill-rule:nonzero;stroke:none"
         id="path30" />
      <path
         d="m 1326.94,337.813 c 0,-42.754 0.88,-43.055 29.6,-44.551 l 1.48,-2.078 v -5.528 c 0,-1.75 -4.41,-2.051 -7.04,-2.051 -4.11,0 -23.74,1.473 -35.74,1.473 -14.06,0 -28.44,-1.473 -43.66,-1.473 -1.16,0.614 -1.45,2.344 -1.45,5.301 0.29,3.77 0.87,4.356 9.35,4.356 20.23,0 21.1,4.402 21.1,26.691 V 460 c 0,16.699 -4.97,20.813 -29.58,20.813 l -0.87,1.433 -0.58,4.727 c 0.28,3.215 2.93,3.527 4.68,3.527 7.89,0 17.28,-1.496 37.19,-1.496 14.64,0 32.25,1.496 43.95,1.496 l 1.46,-2.102 v -5.242 l -1.16,-1.777 -7.91,-0.566 c -11.72,-0.872 -20.82,-2.09 -20.82,-15.547 V 337.813"
         style="fill:#040606;fill-opacity:1;fill-rule:nonzero;stroke:none"
         id="path32" />
      <path
         d="m 1397.31,470.859 c -3.22,7.871 -14.92,9.954 -23.16,9.954 l -1.75,1.433 v 7.637 l 3.23,0.605 c 12.31,0 30.19,-1.472 36.65,-1.472 13.45,0 26.63,1.472 40.1,1.472 l 0.88,-0.918 -0.88,-8.203 -13.76,-1.172 c -4.68,-0.242 -9.95,-2.019 -9.95,-6.394 0,-2.363 1.47,-6.184 2.63,-8.821 l 33.69,-87.941 19.08,-43.59 c 2.03,-4.394 2.32,-5.293 3.21,-5.293 0.58,0 1.43,1.211 2.61,4.649 l 41.92,111.093 c 4.68,12.579 8.2,23.457 7.9,26.961 -0.3,4.961 -1.77,7.59 -10.25,8.43 l -15.23,1.524 -1.77,0.878 v 9.051 c 11.45,0 22.84,-1.726 34.3,-1.726 9.09,0 28.41,1.726 30.47,1.726 l 2.33,-1.172 v -6.726 l -2.61,-2.031 -9.12,-0.618 c -5.87,-0.242 -8.21,-3.203 -12.28,-13.476 -27.84,-67.071 -34.58,-88.203 -56.84,-144.735 l -14.95,-38.086 c -1.44,-4.113 -2.03,-4.375 -4.1,-4.375 -2.66,0 -3.23,0.879 -3.8,2.051 l -78.55,189.285"
         style="fill:#040606;fill-opacity:1;fill-rule:nonzero;stroke:none"
         id="path34" />
      <path
         d="m 1626.53,460.605 c 0,19.016 -14.36,21.086 -31.36,21.086 -1.18,0 -1.18,1.465 -1.18,2.664 v 3.223 c 0,2.61 5,2.902 15.24,2.902 11.73,0 24.91,-1.476 37.23,-1.476 11.68,0 23.44,1.476 35.16,1.476 h 61.82 c 2.33,0 2.62,-2.667 2.62,-5.859 v -35.754 c 0,-1.172 -0.58,-2.324 -2.03,-2.324 -2.34,0 -7.02,-0.34 -7.34,3.215 l -0.87,9.051 c -1.8,18.742 -14.67,22.004 -31.07,22.004 h -30.17 c -16.44,0 -21.68,-3.547 -21.68,-25.813 v -53.008 c 0,-0.859 1.76,-2.351 2.35,-2.351 l 34.56,1.172 c 17.57,0.585 22.59,6.171 26.97,21.699 0.58,1.699 1.47,2.332 4.66,2.332 2.1,0 3.57,-0.305 3.57,-1.778 0,-6.152 -1.77,-19.628 -1.77,-29.316 0,-15.77 1.77,-24.324 1.77,-29.238 0,-1.797 -2.96,-3.563 -4.72,-3.563 -2.33,0 -4.4,0.899 -4.98,3.836 -1.45,7.879 -1.45,13.528 -2.91,17.57 -1.5,4.364 -5.02,6.446 -13.8,6.7 l -41.6,0.925 c -4.1,0 -4.1,-1.503 -4.1,-3.515 v -69.766 c 0,-21.082 15.55,-21.648 35.75,-21.648 h 15.82 c 15.52,0 26.36,0.273 33.71,4.637 6.45,3.878 15.51,21.738 18.71,29.023 3.84,0 8.83,-0.859 8.83,-2.91 0,-0.906 -0.85,-3.25 -1.48,-4.68 l -8.2,-29.586 c -2.35,-7.93 -3.81,-7.93 -7.63,-7.93 -31.63,0 -62.7,1.465 -105.18,1.465 -9.66,0 -34.28,-1.465 -49.24,-1.465 -0.87,0 -1.76,2.958 -1.76,4.715 0,2.305 0.6,4.942 1.76,4.942 25.55,1.183 32.54,3.816 32.54,30.773 v 136.57"
         style="fill:#040606;fill-opacity:1;fill-rule:nonzero;stroke:none"
         id="path36" />
      <path
         d="m 1846.09,396.398 c 3.83,-0.285 7.3,-0.57 11.12,-0.57 23.46,0 52.76,8.195 52.76,42.777 0,25.821 -17.6,42.52 -43.37,42.52 -19.93,0 -20.51,-4.738 -20.51,-13.496 z m -26.37,62.43 c 0,14.649 -0.61,21.985 -19.05,21.985 h -12 c -1.77,0 -2.03,3.222 -2.03,5.554 0,1.446 0.86,4.133 2.03,4.133 16.96,0 34.29,-0.93 51.27,-0.93 13.45,0 26.66,0.93 40.14,0.93 29.89,0 59.19,-19.941 59.19,-50.715 0,-26.64 -24.33,-44.539 -47.18,-48.047 v -0.586 c 11.42,-2.664 23.42,-24.062 26.39,-28.718 l 32.2,-49.25 c 10.27,-15.52 17.02,-18.426 34.57,-19.344 l 1.77,-1.731 v -5.546 c 0,-2.657 -2.07,-2.958 -3.22,-2.958 -6.12,0 -15.22,0.86 -19.64,0.86 -7.01,0 -14.06,-0.86 -21.09,-0.86 -6.71,0 -19.93,19.637 -37.22,50.411 -19.03,33.711 -30.18,52.144 -49.48,52.144 -2.38,0 -5.87,0 -10.28,-0.555 v -71.863 c 0,-10.5 0,-20.48 14.66,-20.48 11.12,0 16.1,0 16.1,-2.324 0,-5.567 -0.87,-7.333 -5.27,-7.333 -15.21,0 -27.83,1.473 -40.44,1.473 -4.98,0 -37.5,-1.473 -41.59,-1.473 -1.77,0 -2.34,3.817 -2.34,6.161 0,2.597 1.16,3.195 7.06,3.496 20.19,0.929 25.45,3.816 25.45,24.043 v 141.523"
         style="fill:#040606;fill-opacity:1;fill-rule:nonzero;stroke:none"
         id="path38" />
      <path
         d="m 2033.43,390.273 c -21.1,12.598 -29.61,24.336 -29.61,47.168 0,36.594 29.91,57.122 69.43,57.122 11.15,0 26.97,-3.829 36.91,-8.196 l 2.04,-36.621 v -1.465 c 0,-1.484 -2.89,-2.078 -7.01,-2.078 -3.82,0 -4.37,1.777 -4.66,4.715 -2.08,19.629 -16.13,32.238 -36.96,32.238 -19.91,0 -35.41,-14.043 -35.41,-32.851 0,-21.059 12.84,-29.297 42.15,-44.785 29.02,-15.247 54.23,-28.723 54.23,-65.364 0,-39.851 -36.05,-60.633 -72.65,-60.633 -12.03,0 -31.96,3.836 -43.1,8.457 -2.33,1.231 -3.2,4.989 -4.06,11.407 l -3.54,27.586 c 0,1.75 5.87,1.75 7.6,1.75 0.88,0 1.76,-0.578 2.35,-2.61 6.74,-22.293 21.96,-35.175 45.44,-35.175 20.49,0 40.12,17.863 40.12,37.785 0,19.07 -10.85,30.507 -26.09,39.566 l -37.18,21.984"
         style="fill:#040606;fill-opacity:1;fill-rule:nonzero;stroke:none"
         id="path40" />
      <path
         d="m 2206.37,337.813 c 0,-42.754 0.87,-43.055 29.59,-44.551 l 1.49,-2.078 v -5.528 c 0,-1.75 -4.42,-2.051 -7.09,-2.051 -4.07,0 -23.69,1.473 -35.73,1.473 -14.07,0 -28.38,-1.473 -43.63,-1.473 -1.19,0.614 -1.46,2.344 -1.46,5.301 0.27,3.77 0.86,4.356 9.35,4.356 20.26,0 21.11,4.402 21.11,26.691 L 2180,460 c 0,16.699 -4.99,20.813 -29.6,20.813 l -0.86,1.433 -0.6,4.727 c 0.29,3.215 2.94,3.527 4.68,3.527 7.91,0 17.28,-1.496 37.21,-1.496 14.67,0 32.24,1.496 43.98,1.496 l 1.45,-2.102 v -5.242 l -1.14,-1.777 -7.98,-0.566 c -11.7,-0.872 -20.77,-2.09 -20.77,-15.547 V 337.813"
         style="fill:#040606;fill-opacity:1;fill-rule:nonzero;stroke:none"
         id="path42" />
      <path
         d="m 2361.98,314.91 c 0,-21.637 14.66,-21.637 32.83,-21.637 l 1.77,-1.476 v -4.676 c 0,-3.516 -1.47,-3.516 -6.21,-3.516 -5.85,0 -20.2,1.465 -40.69,1.465 -16.1,0 -41.28,-1.465 -48.36,-1.465 -0.59,2.04 -1.17,3.516 -1.17,5.301 0,0.86 0.31,2.617 1.17,3.203 l 2.97,1.164 h 3.51 c 26.67,0 27.84,9.063 27.84,33.407 v 138.867 l -0.87,13.476 h -39.27 c -22.28,0 -25.82,-14.043 -31.36,-32.82 -0.59,-1.75 -1.77,-2.609 -3.53,-2.609 -4.08,0 -6.78,1.191 -6.78,2.941 0,4.961 3.56,32.195 3.56,55.36 0,1.171 4.13,1.171 8.18,1.171 9.38,-12.578 12.34,-12.578 24.95,-12.578 h 108.97 c 20.52,0 26.37,6.153 33.71,15.215 2.02,0 8.76,0 8.76,-2.637 0,-2.351 -5.84,-26.367 -6.45,-47.488 0,-3.207 -0.89,-9.375 -2.31,-9.375 -2.64,0 -9.39,1.492 -9.39,2.996 l -1.17,14.61 c -1.14,14.921 -8.2,15.214 -20.18,15.214 h -40.48 V 314.91"
         style="fill:#040606;fill-opacity:1;fill-rule:nonzero;stroke:none"
         id="path44" />
      <path
         d="m 2542.41,376.77 c 0,2.968 -0.29,6.785 -3.52,11.519 l -66.11,89.387 c -1.76,2.668 -4.41,4.14 -11.22,4.426 l -11.19,0.625 -1.77,0.867 v 7.656 l 1.77,0.891 h 3.54 c 5.01,0 36.59,-1.465 42.16,-1.465 7.4,0 19.22,1.465 28.93,1.465 6.48,0 9.43,0 9.43,-1.789 v -3.555 c 0,-2.91 -0.88,-4.375 -1.75,-4.375 l -17.11,-0.606 c -4.16,0 -6.81,-1.746 -6.81,-5.007 0,-1.192 1.75,-4.141 4.76,-7.93 l 42.16,-58.762 c 2.36,-3.262 5,-6.179 7.98,-8.867 5.59,5.344 31.58,41.055 44.26,59.609 4.73,6.817 7.4,12.414 7.4,14.758 0,4.121 -2.4,5.879 -10.96,6.199 l -14.77,0.606 c 0.34,0 0,4.375 0,5.586 0,1.484 0.34,3.242 1.81,4.133 11.49,-1.172 25.65,-1.465 38.34,-1.465 8.58,0 21.52,1.465 25.37,1.465 l 1.78,-1.172 v -6.809 l -1.16,-1.172 -10.94,-0.566 c -9.44,-0.606 -21.24,-20.645 -26.86,-28.328 l -48.94,-67.016 v -69.293 c 0,-6.203 0.26,-11.555 0.87,-13.312 2.36,-7.032 10.02,-10.938 20.96,-10.938 h 7.95 l 2.65,-1.172 v -8.25 l -1.47,-0.293 h -4.45 c -12.98,0 -25.64,1.512 -38.64,1.512 -13.25,0 -26.86,-1.512 -40.1,-1.512 h -4.15 l -2.37,0.606 v 5.027 c 0,1.731 0.59,3.82 2.95,4.082 l 13.86,1.524 c 8.57,0.879 15.36,3.82 15.36,18.554 v 63.157"
         style="fill:#040606;fill-opacity:1;fill-rule:nonzero;stroke:none"
         id="path46" />
      <path
         d="m 3746.42,489.973 c 9.1,0 18.5,-0.852 27.91,-0.852 7.38,0 14.98,0.852 22.34,0.852 4.4,0 5.3,-1.145 5.3,-2.063 v -4.676 c 0,-2.05 -0.9,-3.535 -2.11,-3.535 -2.03,0 -5.24,0.606 -8.81,0.606 -17.07,0 -17.07,-8.535 -17.07,-27.657 0,-16.75 3.26,-126.691 3.26,-142.863 0,-8.203 4.14,-17.644 16.78,-17.644 11.76,0 13.18,-0.586 13.18,-3.243 0,-3.527 -1.72,-6.464 -2.6,-6.464 -15.6,0 -27.91,1.504 -40.29,1.504 -12.32,0 -24.98,-1.504 -37.62,-1.504 -2.07,0 -2.34,1.187 -2.34,2.937 v 2.957 c 0,2.934 2.66,3.813 16.17,3.813 5.9,0 11.15,7.05 11.15,17.351 0,31.731 -1.15,100.235 -2.34,150.52 -1.19,0.273 -0.88,0.273 -0.88,0.273 -16.44,-33.808 -37.91,-82.89 -47.89,-109.062 l -27.71,-72.61 c -0.22,-0.859 -1.12,-1.746 -2.62,-1.746 -1.41,0 -2.64,1.485 -3.5,5.567 -1.73,7.402 -4.39,14.433 -7.38,21.464 l -55.55,135.254 c -2.07,5 -3.8,8.512 -4.94,8.512 -1.25,0 -1.25,-5.867 -1.25,-9.129 0,-23.222 -3.47,-111.972 -3.47,-126.406 0,-12.625 0,-19.988 25.87,-19.988 1.74,0 2.04,-1.446 2.04,-4.981 0,-1.172 -0.3,-4.726 -1.47,-4.726 -4.14,0 -18.51,1.504 -34.41,1.504 -16.7,0 -33.21,-1.504 -37.35,-1.504 -0.86,0 -1.75,0.906 -1.75,2.39 v 4.387 c 0,2.644 2.38,2.93 5.89,2.93 24.11,0 27.62,7.363 27.62,32.949 0,14.402 4.96,122.574 4.96,133.164 0,15.574 -7.62,22.051 -34.02,22.051 -0.9,0 -1.51,1.433 -1.51,3.222 v 3.817 c 0,1.484 0.9,2.629 2.39,2.629 11.15,0 21.76,-1.457 33.47,-1.457 7.35,0 15,1.457 22.37,1.457 2.09,0 4.14,-4.707 5.56,-8.528 l 63.52,-151.961 h 1.39 l 67.71,160.489"
         style="fill:#040606;fill-opacity:1;fill-rule:nonzero;stroke:none"
         id="path48" />
      <path
         d="m 3852.73,389.453 c -21.25,12.649 -29.77,24.426 -29.77,47.293 0,36.789 29.98,57.348 69.67,57.348 11.19,0 27.07,-3.789 37.09,-8.223 l 2.05,-36.758 v -1.457 c 0,-1.472 -2.97,-2.039 -7.11,-2.039 -3.81,0 -4.35,1.746 -4.66,4.668 -2.06,19.695 -16.18,32.371 -37.06,32.371 -19.96,0 -35.54,-14.101 -35.54,-32.957 0,-21.144 12.95,-29.367 42.32,-44.953 29.14,-15.293 54.42,-28.789 54.42,-65.555 0,-40.011 -36.22,-60.839 -72.91,-60.839 -12.07,0 -32.09,3.808 -43.25,8.523 -2.34,1.16 -3.22,4.992 -4.14,11.453 l -3.51,27.629 c 0,1.758 5.9,1.758 7.65,1.758 0.94,0 1.78,-0.567 2.35,-2.637 6.77,-22.324 22.11,-35.254 45.58,-35.254 20.59,0 40.26,17.93 40.26,37.891 0,19.113 -10.84,30.574 -26.14,39.687 l -37.3,22.051"
         style="fill:#040606;fill-opacity:1;fill-rule:nonzero;stroke:none"
         id="path50" />
      <path
         d="m 4066.81,313.145 c 0,-21.786 14.67,-21.786 32.91,-21.786 l 1.8,-1.449 v -4.707 c 0,-3.551 -1.49,-3.551 -6.21,-3.551 -5.86,0 -20.24,1.504 -40.84,1.504 -16.17,0 -41.47,-1.504 -48.5,-1.504 -0.64,2.09 -1.17,3.551 -1.17,5.293 0,0.907 0.31,2.664 1.17,3.258 l 2.97,1.156 h 3.52 c 26.75,0 27.93,9.137 27.93,33.524 V 464.23 l -0.9,13.516 h -39.38 c -22.36,0 -25.92,-14.101 -31.48,-32.91 -0.57,-1.777 -1.76,-2.656 -3.52,-2.656 -4.16,0 -6.72,1.179 -6.72,2.918 0,5.011 3.48,32.343 3.48,55.597 0,1.153 4.12,1.153 8.24,1.153 9.42,-12.657 12.33,-12.657 24.96,-12.657 h 109.34 c 20.6,0 26.5,6.192 33.83,15.301 2.09,0 8.83,0 8.83,-2.644 0,-2.364 -5.88,-26.446 -6.47,-47.637 0,-3.195 -0.92,-9.375 -2.36,-9.375 -2.66,0 -9.38,1.434 -9.38,2.918 l -1.17,14.719 c -1.21,14.968 -8.24,15.273 -20.31,15.273 h -40.57 V 313.145"
         style="fill:#040606;fill-opacity:1;fill-rule:nonzero;stroke:none"
         id="path52" />
      <path
         d="m 4190.21,460.012 c 0,19.082 -14.43,21.172 -31.45,21.172 -1.17,0 -1.17,1.472 -1.17,2.625 v 3.242 c 0,2.648 5,2.922 15.28,2.922 11.73,0 24.98,-1.446 37.36,-1.446 11.74,0 23.5,1.446 35.21,1.446 h 62.09 c 2.31,0 2.6,-2.629 2.6,-5.86 v -35.871 c 0,-1.179 -0.6,-2.363 -2.07,-2.363 -2.34,0 -7.05,-0.262 -7.34,3.234 l -0.9,9.141 c -1.76,18.809 -14.69,22.051 -31.11,22.051 h -30.32 c -16.42,0 -21.73,-3.547 -21.73,-25.86 v -53.234 c 0,-0.867 1.75,-2.363 2.4,-2.363 l 34.63,1.172 c 17.61,0.617 22.67,6.171 27.05,21.789 0.58,1.757 1.48,2.363 4.74,2.363 2.03,0 3.46,-0.352 3.46,-1.789 0,-6.192 -1.72,-19.719 -1.72,-29.395 0,-15.886 1.72,-24.402 1.72,-29.394 0,-1.778 -2.89,-3.543 -4.69,-3.543 -2.32,0 -4.37,0.887 -4.98,3.847 -1.46,7.887 -1.46,13.497 -2.91,17.606 -1.52,4.406 -5.06,6.476 -13.86,6.777 l -41.72,0.86 c -4.12,0 -4.12,-1.438 -4.12,-3.485 v -70.011 c 0,-21.141 15.58,-21.739 35.87,-21.739 h 15.88 c 15.59,0 26.45,0.313 33.79,4.739 6.53,3.789 15.59,21.707 18.79,29.07 3.87,0 8.83,-0.879 8.83,-2.918 0,-0.91 -0.86,-3.234 -1.45,-4.719 l -8.24,-29.687 c -2.34,-7.957 -3.79,-7.957 -7.63,-7.957 -31.76,0 -62.93,1.511 -105.51,1.511 -9.71,0 -34.42,-1.511 -49.4,-1.511 -0.9,0 -1.77,2.937 -1.77,4.726 0,2.352 0.56,4.981 1.77,4.981 25.55,1.187 32.62,3.836 32.62,30.879 v 136.992"
         style="fill:#040606;fill-opacity:1;fill-rule:nonzero;stroke:none"
         id="path54" />
      <path
         d="m 4401.19,395.637 c 3.81,-0.305 7.36,-0.606 11.15,-0.606 23.49,0 52.93,8.242 52.93,42.938 0,25.84 -17.64,42.617 -43.5,42.617 -20.02,0 -20.58,-4.695 -20.58,-13.523 z m -26.47,62.617 c 0,14.668 -0.6,22.051 -19.14,22.051 h -12.07 c -1.74,0 -2.03,3.211 -2.03,5.574 0,1.465 0.92,4.094 2.03,4.094 17.07,0 34.47,-0.86 51.5,-0.86 13.54,0 26.76,0.86 40.26,0.86 30,0 59.39,-20 59.39,-50.832 0,-26.739 -24.39,-44.676 -47.32,-48.223 v -0.574 c 11.46,-2.641 23.53,-24.114 26.44,-28.789 l 32.35,-49.414 c 10.23,-15.606 17.03,-18.536 34.7,-19.414 l 1.72,-1.739 v -5.617 c 0,-2.605 -2.05,-2.937 -3.2,-2.937 -6.21,0 -15.33,0.918 -19.73,0.918 -7.07,0 -14.1,-0.918 -21.13,-0.918 -6.78,0 -20.02,19.714 -37.34,50.562 -19.1,33.832 -30.32,52.356 -49.73,52.356 -2.3,0 -5.86,0 -10.23,-0.606 v -72.031 c 0,-10.567 0,-20.567 14.7,-20.567 11.12,0 16.18,0 16.18,-2.324 0,-5.586 -0.86,-7.39 -5.36,-7.39 -15.29,0 -27.89,1.504 -40.54,1.504 -4.96,0 -37.56,-1.504 -41.72,-1.504 -1.78,0 -2.37,3.816 -2.37,6.199 0,2.637 1.16,3.222 7.04,3.515 20.27,0.887 25.6,3.829 25.6,24.133 v 141.973"
         style="fill:#040606;fill-opacity:1;fill-rule:nonzero;stroke:none"
         id="path56" />
      <path
         d="m 4612.08,326.465 c 0,-32.352 33.25,-32.352 46.14,-32.352 40.25,0 83.16,33.211 83.16,94.676 0,52.332 -28.18,78.203 -48.51,89.941 -14.09,6.172 -32.62,7.649 -45.24,7.649 -24.08,0 -35.55,-1.738 -35.55,-20.598 z m -26.5,131.125 c 0,11.152 -2.3,22.617 -13.22,22.617 -3.52,0 -12.89,-1.172 -18.5,-1.172 -1.19,0 -1.19,4.403 -1.19,5.867 0,1.77 0,2.657 5.02,3.801 19.73,4.141 66.7,7.363 91.95,7.363 16.21,0 31.51,-1.476 45.92,-5.265 39.94,-10.906 77.29,-46.465 77.29,-100.547 0,-72.891 -60.88,-105.848 -116.72,-105.848 -27.93,0 -42.64,1.199 -57.27,1.199 -14.74,0 -29.41,-0.867 -44.12,-1.199 -1.17,0 -1.46,2.645 -1.46,4.735 0,2.05 1.46,4.972 2.63,4.972 9.44,1.192 17.01,1.778 22.37,5.313 4.39,2.937 7.3,7.652 7.3,17.027 V 457.59"
         style="fill:#040606;fill-opacity:1;fill-rule:nonzero;stroke:none"
         id="path58" />
      <path
         d="m 4890.07,376.211 -32.63,84.074 h -0.63 l -27.83,-84.074 z m -65,-11.445 -12.89,-41.746 c -2.4,-7.629 -3.51,-14.407 -3.51,-19.122 0,-9.679 13.81,-11.757 21.75,-11.757 2.6,0 3.21,-1.75 3.21,-5.559 0,-2.949 -0.31,-4.148 -2.35,-4.148 -6.77,0 -28.2,1.504 -36.17,1.504 -7.93,0 -20.27,-1.504 -29.08,-1.504 -5.88,0 -5.88,0.906 -5.88,4.734 v 3.223 c 0,1.464 2.68,2.082 9.71,2.644 15.27,1.477 17.32,4.418 22.91,20.578 l 58.18,169.317 c 5.86,4.98 12.07,11.758 19.42,14.14 l 73.79,-186.101 c 5.03,-12.324 10.33,-18.496 27.34,-18.496 3.26,0 3.83,-3.575 3.83,-6.778 0,-3.261 -2.03,-3.261 -5.57,-3.261 -4.69,0 -23.53,1.504 -35,1.504 -11.78,0 -23.53,-0.598 -35.29,-1.504 -4.4,0 -4.69,0.906 -4.69,5.046 0,3.215 1.78,4.661 5.86,4.661 4.41,0 18.85,0.894 18.85,7.968 0,2.325 -1.17,7.032 -5.32,17.325 l -18.78,47.332 h -70.32"
         style="fill:#040606;fill-opacity:1;fill-rule:nonzero;stroke:none"
         id="path60" />
      <path
         d="m 5179.45,489.973 c 9.14,0 18.53,-0.852 27.95,-0.852 7.3,0 15,0.852 22.34,0.852 4.4,0 5.26,-1.145 5.26,-2.063 v -4.676 c 0,-2.05 -0.86,-3.535 -2,-3.535 -2.09,0 -5.35,0.606 -8.86,0.606 -17.02,0 -17.02,-8.535 -17.02,-27.657 0,-16.75 3.21,-126.691 3.21,-142.863 0,-8.203 4.14,-17.644 16.77,-17.644 11.7,0 13.25,-0.586 13.25,-3.243 0,-3.527 -1.8,-6.464 -2.68,-6.464 -15.6,0 -27.91,1.504 -40.27,1.504 -12.35,0 -24.98,-1.504 -37.66,-1.504 -2.05,0 -2.32,1.187 -2.32,2.937 v 2.957 c 0,2.934 2.63,3.813 16.13,3.813 5.9,0 11.15,7.05 11.15,17.351 0,31.731 -1.11,100.235 -2.28,150.52 -1.17,0.273 -0.92,0.273 -0.92,0.273 -16.47,-33.808 -37.91,-82.89 -47.89,-109.062 l -27.62,-72.61 c -0.31,-0.859 -1.23,-1.746 -2.66,-1.746 -1.48,0 -2.63,1.485 -3.55,5.567 -1.74,7.402 -4.39,14.433 -7.34,21.464 l -55.55,135.254 c -2.07,5 -3.81,8.512 -4.98,8.512 -1.17,0 -1.17,-5.867 -1.17,-9.129 0,-23.222 -3.58,-111.972 -3.58,-126.406 0,-12.625 0,-19.988 25.88,-19.988 1.8,0 2.05,-1.446 2.05,-4.981 0,-1.172 -0.25,-4.726 -1.48,-4.726 -4.06,0 -18.5,1.504 -34.38,1.504 -16.77,0 -33.24,-1.504 -37.3,-1.504 -0.88,0 -1.74,0.906 -1.74,2.39 v 4.387 c 0,2.644 2.31,2.93 5.8,2.93 24.14,0 27.68,7.363 27.68,32.949 0,14.402 5,122.574 5,133.164 0,15.574 -7.6,22.051 -34.14,22.051 -0.82,0 -1.47,1.433 -1.47,3.222 v 3.817 c 0,1.484 0.9,2.629 2.38,2.629 11.18,0 21.74,-1.457 33.58,-1.457 7.28,0 14.92,1.457 22.26,1.457 2.09,0 4.13,-4.707 5.61,-8.528 l 63.48,-151.961 h 1.48 l 67.6,160.489"
         style="fill:#040606;fill-opacity:1;fill-rule:nonzero;stroke:none"
         id="path62" />
    </g>
  </g>
</svg>
